<svg width="1720" height="2180" viewBox="0 0 1720 2180" fill="none" xmlns="http://www.w3.org/2000/svg">
<path d="M1720 0H0V1720H1720V0Z" fill="white"/>
<path d="M1397.5 322.5H322.5V1397.5H1397.5V322.5Z" fill="white"/>
<path d="M1005.34 396.338C1008.77 401.239 1016.7 401.61 1023.04 397.166C1029.39 392.723 1031.75 385.149 1028.32 380.248C1024.89 375.348 1016.96 374.977 1010.62 379.42C1004.27 383.863 1001.91 391.438 1005.34 396.338Z" fill="#FFE459"/>
<path d="M559.973 1370.12C559.973 1361.21 567.193 1353.99 576.098 1353.99H906.406C915.311 1353.99 922.531 1361.21 922.531 1370.12V1397.5H559.973V1370.12Z" fill="#FFE459"/>
<path d="M559.973 1370.12C559.973 1361.21 567.193 1353.99 576.098 1353.99H906.406C915.311 1353.99 922.531 1361.21 922.531 1370.12V1397.5H559.973V1370.12Z" fill="#FFE459"/>
<path d="M770.256 1295.99H712.247V1354H770.256V1295.99Z" fill="#FFE459"/>
<path d="M726.748 1324.99C726.748 1339.01 720.255 1350.37 712.247 1350.37C712.247 1350.37 712.247 1339.01 712.247 1324.99C712.247 1310.97 712.247 1299.61 712.247 1299.61C720.255 1299.61 726.748 1310.97 726.748 1324.99Z" fill="#FFE459"/>
<path d="M755.754 1324.99C755.754 1310.97 762.246 1299.61 770.256 1299.61C770.256 1299.61 770.256 1310.97 770.256 1324.99C770.256 1339.01 770.256 1350.37 770.256 1350.37C762.246 1350.37 755.754 1339.01 755.754 1324.99Z" fill="#FFE459"/>
<path d="M770.256 1295.99H712.247V1354H770.256V1295.99Z" fill="#FFE459"/>
<path d="M726.748 1324.99C726.748 1339.01 720.255 1350.37 712.247 1350.37C712.247 1350.37 712.247 1339.01 712.247 1324.99C712.247 1310.97 712.247 1299.61 712.247 1299.61C720.255 1299.61 726.748 1310.97 726.748 1324.99Z" fill="#FFE459"/>
<path d="M755.754 1324.99C755.754 1310.97 762.246 1299.61 770.256 1299.61C770.256 1299.61 770.256 1310.97 770.256 1324.99C770.256 1339.01 770.256 1350.37 770.256 1350.37C762.246 1350.37 755.754 1339.01 755.754 1324.99Z" fill="#FFE459"/>
<path d="M746.327 1324.99C746.327 1310.97 752.096 1299.61 760.104 1299.61C760.104 1299.61 751.041 1310.97 751.041 1324.99C751.041 1339.01 760.104 1349.28 760.104 1349.28C752.096 1349.28 746.327 1339.01 746.327 1324.99Z" fill="#FFE459"/>
<path d="M705.92 1121.01L655.682 1150.01L684.687 1200.25L734.924 1171.25L705.92 1121.01Z" fill="#FFE459"/>
<path d="M682.742 1167.89C689.75 1180.03 689.808 1193.11 682.872 1197.12C682.872 1197.12 677.191 1187.27 670.183 1175.14C663.175 1163 657.494 1153.15 657.494 1153.15C664.43 1149.15 675.734 1155.74 682.742 1167.89Z" fill="#FFE459"/>
<path d="M707.861 1153.39C700.853 1141.24 700.795 1128.16 707.731 1124.15C707.731 1124.15 713.412 1134 720.42 1146.13C727.428 1158.27 733.109 1168.12 733.109 1168.12C726.173 1172.12 714.869 1165.53 707.861 1153.39Z" fill="#FFE459"/>
<path d="M705.92 1121.01L655.682 1150.01L684.687 1200.25L734.924 1171.25L705.92 1121.01Z" fill="#FFE459"/>
<path d="M682.742 1167.89C689.75 1180.03 689.808 1193.11 682.872 1197.12C682.872 1197.12 677.191 1187.27 670.183 1175.14C663.175 1163 657.494 1153.15 657.494 1153.15C664.43 1149.15 675.734 1155.74 682.742 1167.89Z" fill="#FFE459"/>
<path d="M707.861 1153.39C700.853 1141.24 700.795 1128.16 707.731 1124.15C707.731 1124.15 713.412 1134 720.42 1146.13C727.428 1158.27 733.109 1168.12 733.109 1168.12C726.173 1172.12 714.869 1165.53 707.861 1153.39Z" fill="#FFE459"/>
<path d="M699.697 1158.1C692.689 1145.96 692.002 1133.23 698.939 1129.23C698.939 1129.23 696.771 1143.6 703.779 1155.74C710.787 1167.88 723.774 1172.24 723.774 1172.24C716.838 1176.25 706.705 1170.23 699.697 1158.1Z" fill="#FFE459"/>
<path d="M526.823 813.056L476.585 842.06L505.59 892.298L555.827 863.293L526.823 813.056Z" fill="#FFE459"/>
<path d="M503.647 859.929C510.656 872.067 510.714 885.154 503.777 889.158C503.777 889.158 498.096 879.319 491.088 867.18C484.08 855.041 478.399 845.2 478.399 845.2C485.335 841.196 496.639 847.79 503.647 859.929Z" fill="#FFE459"/>
<path d="M528.766 845.426C521.758 833.288 521.699 820.201 528.635 816.197C528.635 816.197 534.317 826.037 541.325 838.175C548.333 850.314 554.014 860.155 554.014 860.155C547.078 864.159 535.774 857.565 528.766 845.426Z" fill="#FFE459"/>
<path d="M526.823 813.056L476.585 842.06L505.59 892.298L555.827 863.293L526.823 813.056Z" fill="#FFE459"/>
<path d="M503.647 859.929C510.656 872.067 510.714 885.154 503.777 889.158C503.777 889.158 498.096 879.319 491.088 867.18C484.08 855.041 478.399 845.2 478.399 845.2C485.335 841.196 496.639 847.79 503.647 859.929Z" fill="#FFE459"/>
<path d="M528.766 845.426C521.758 833.288 521.699 820.201 528.635 816.197C528.635 816.197 534.317 826.037 541.325 838.175C548.333 850.314 554.014 860.155 554.014 860.155C547.078 864.159 535.774 857.565 528.766 845.426Z" fill="#FFE459"/>
<path d="M520.601 850.14C513.593 838.001 512.906 825.276 519.843 821.272C519.843 821.272 517.675 835.645 524.683 847.783C531.691 859.921 544.678 864.288 544.678 864.288C537.742 868.292 527.609 862.278 520.601 850.14Z" fill="#FFE459"/>
<path d="M588.707 724.37L555.434 676.851L507.916 710.124L541.189 757.642L588.707 724.37Z" fill="#FFE459"/>
<path d="M539.992 705.368C528.511 713.408 515.479 714.606 510.885 708.046C510.885 708.046 520.193 701.528 531.675 693.489C543.156 685.449 552.463 678.931 552.463 678.931C557.058 685.493 551.474 697.329 539.992 705.368Z" fill="#FFE459"/>
<path d="M556.628 729.128C568.111 721.088 581.143 719.89 585.736 726.451C585.736 726.451 576.429 732.968 564.947 741.007C553.466 749.047 544.157 755.565 544.157 755.565C539.564 749.003 545.147 737.167 556.628 729.128Z" fill="#FFE459"/>
<path d="M588.707 724.37L555.434 676.851L507.916 710.124L541.189 757.642L588.707 724.37Z" fill="#FFE459"/>
<path d="M539.992 705.368C528.511 713.408 515.479 714.606 510.885 708.046C510.885 708.046 520.193 701.528 531.675 693.489C543.156 685.449 552.463 678.931 552.463 678.931C557.058 685.493 551.474 697.329 539.992 705.368Z" fill="#FFE459"/>
<path d="M556.628 729.128C568.111 721.088 581.143 719.89 585.736 726.451C585.736 726.451 576.429 732.968 564.947 741.007C553.466 749.047 544.157 755.565 544.157 755.565C539.564 749.003 545.147 737.167 556.628 729.128Z" fill="#FFE459"/>
<path d="M551.222 721.406C562.703 713.366 575.32 711.573 579.913 718.134C579.913 718.134 565.407 717.226 553.925 725.266C542.444 733.306 539.225 746.624 539.225 746.624C534.632 740.063 539.74 729.445 551.222 721.406Z" fill="#FFE459"/>
<path d="M741.252 1295.98C773.29 1295.98 799.262 1270.01 799.262 1237.97C799.262 1205.93 773.29 1179.96 741.252 1179.96C709.215 1179.96 683.243 1205.93 683.243 1237.97C683.243 1270.01 709.215 1295.98 741.252 1295.98Z" fill="#FFE459"/>
<path d="M472.959 829.009C504.997 829.009 530.968 803.037 530.968 771C530.968 738.962 504.997 712.99 472.959 712.99C440.922 712.99 414.95 738.962 414.95 771C414.95 803.037 440.922 829.009 472.959 829.009Z" fill="#FFE459"/>
<path d="M770.257 1269.88H712.248V1295.98H770.257V1269.88Z" fill="#FFE459"/>
<path d="M734.893 1171.2L684.656 1200.21L698.763 1224.64L749 1195.64L734.893 1171.2Z" fill="#FFE459"/>
<path d="M511.754 786.952L461.517 815.956L476.683 842.225L526.921 813.221L511.754 786.952Z" fill="#FFE459"/>
<path d="M541.232 757.609L507.959 710.09L483.112 727.489L516.384 775.007L541.232 757.609Z" fill="#FFE459"/>
<path d="M962.218 454.899L935.637 416.938L900.782 441.343L927.363 479.304L962.218 454.899Z" fill="#FFE459"/>
<path d="M1022.57 397.488L1010.15 379.757L977.605 402.547L990.021 420.278L1022.57 397.488Z" fill="#FFE459"/>
<path d="M1014.86 389.754L962.215 454.901L935.634 416.939L1014.86 389.754Z" fill="#FFE459"/>
<path d="M541.283 863.815L515.016 878.98L673.719 1153.86L699.986 1138.7L541.283 863.815Z" fill="#FFE459"/>
<path d="M541.283 863.815L515.016 878.98L673.719 1153.86L699.986 1138.7L541.283 863.815Z" fill="#FFE459"/>
<path d="M953.029 452.141L935.632 427.295L561.424 689.318L578.821 714.164L953.029 452.141Z" fill="#FFE459"/>
<path d="M953.029 452.141L935.632 427.295L561.424 689.318L578.821 714.164L953.029 452.141Z" fill="#FFE459"/>
<path fill-rule="evenodd" clip-rule="evenodd" d="M982.094 383.082C982.096 383.085 982.097 383.087 982.097 383.087L982.098 383.086L997.262 398.25C936.895 498.645 1080.03 665.023 1080.03 665.023L1299.38 445.667C1299.38 445.667 1140.9 309.318 1039.95 358.901L1022.57 341.522L1022.5 341.589C1018.37 338.445 994.278 321.384 977.846 337.817C961.413 354.249 978.475 378.343 981.619 382.473L981.552 382.54L982.094 383.082Z" fill="#FFE459"/>
<path fill-rule="evenodd" clip-rule="evenodd" d="M982.096 383.085C982.097 383.086 982.097 383.087 982.097 383.087L997.262 398.252C936.897 498.646 1080.03 665.024 1080.03 665.024L1299.38 445.667C1299.38 445.667 1140.9 309.317 1039.95 358.902L1022.57 341.522L1022.5 341.59C1018.37 338.445 994.278 321.385 977.846 337.817C961.414 354.249 978.475 378.342 981.619 382.473L981.551 382.541L982.096 383.085Z" fill="#FFE459"/>
<path d="M1298.97 438.908L1073.36 664.511C1072.23 665.644 1072.23 667.481 1073.36 668.613C1074.5 669.746 1076.33 669.746 1077.47 668.613L1303.07 443.01C1304.2 441.877 1304.2 440.041 1303.07 438.908C1301.94 437.775 1300.1 437.775 1298.97 438.908Z" fill="#FFE459"/>
<path d="M559.973 1370.12C559.973 1361.21 567.193 1353.99 576.098 1353.99H906.406C915.311 1353.99 922.531 1361.21 922.531 1370.12V1397.5H559.973V1370.12Z" fill="#FFE459"/>
<path d="M559.973 1370.12C559.973 1361.21 567.193 1353.99 576.098 1353.99H906.406C915.311 1353.99 922.531 1361.21 922.531 1370.12V1397.5H559.973V1370.12Z" fill="#FFE459"/>
<path d="M770.256 1295.99H712.247V1354H770.256V1295.99Z" fill="#FFE459"/>
<path d="M726.748 1324.99C726.748 1339.01 720.255 1350.37 712.247 1350.37C712.247 1350.37 712.247 1339.01 712.247 1324.99C712.247 1310.97 712.247 1299.61 712.247 1299.61C720.255 1299.61 726.748 1310.97 726.748 1324.99Z" fill="#FFE459"/>
<path d="M755.754 1324.99C755.754 1310.97 762.246 1299.61 770.256 1299.61C770.256 1299.61 770.256 1310.97 770.256 1324.99C770.256 1339.01 770.256 1350.37 770.256 1350.37C762.246 1350.37 755.754 1339.01 755.754 1324.99Z" fill="#FFE459"/>
<path d="M770.256 1295.99H712.247V1354H770.256V1295.99Z" fill="#FFE459"/>
<path d="M726.748 1324.99C726.748 1339.01 720.255 1350.37 712.247 1350.37C712.247 1350.37 712.247 1339.01 712.247 1324.99C712.247 1310.97 712.247 1299.61 712.247 1299.61C720.255 1299.61 726.748 1310.97 726.748 1324.99Z" fill="white"/>
<path d="M755.754 1324.99C755.754 1310.97 762.246 1299.61 770.256 1299.61C770.256 1299.61 770.256 1310.97 770.256 1324.99C770.256 1339.01 770.256 1350.37 770.256 1350.37C762.246 1350.37 755.754 1339.01 755.754 1324.99Z" fill="white"/>
<path d="M746.327 1324.99C746.327 1310.97 752.096 1299.61 760.104 1299.61C760.104 1299.61 751.041 1310.97 751.041 1324.99C751.041 1339.01 760.104 1349.28 760.104 1349.28C752.096 1349.28 746.327 1339.01 746.327 1324.99Z" fill="#FFE459"/>
<path d="M705.92 1121.01L655.682 1150.01L684.687 1200.25L734.924 1171.25L705.92 1121.01Z" fill="#FFE459"/>
<path d="M682.742 1167.89C689.75 1180.03 689.808 1193.11 682.872 1197.12C682.872 1197.12 677.191 1187.27 670.183 1175.14C663.175 1163 657.494 1153.15 657.494 1153.15C664.43 1149.15 675.734 1155.74 682.742 1167.89Z" fill="#FFE459"/>
<path d="M707.861 1153.39C700.853 1141.24 700.795 1128.16 707.731 1124.15C707.731 1124.15 713.412 1134 720.42 1146.13C727.428 1158.27 733.109 1168.12 733.109 1168.12C726.173 1172.12 714.869 1165.53 707.861 1153.39Z" fill="#FFE459"/>
<path d="M655.682 1150.01L705.919 1121.01L734.924 1171.26L684.687 1200.26L670.184 1175.14L655.682 1150.01Z" fill="#FFE459"/>
<path d="M682.742 1167.89C689.75 1180.03 689.808 1193.11 682.872 1197.12C682.872 1197.12 677.191 1187.27 670.183 1175.14C663.175 1163 657.494 1153.15 657.494 1153.15C664.43 1149.15 675.734 1155.74 682.742 1167.89Z" fill="white"/>
<path d="M707.861 1153.39C700.853 1141.24 700.795 1128.16 707.731 1124.15C707.731 1124.15 713.412 1134 720.42 1146.13C727.428 1158.27 733.109 1168.12 733.109 1168.12C726.173 1172.12 714.869 1165.53 707.861 1153.39Z" fill="white"/>
<path d="M699.697 1158.1C692.689 1145.96 692.002 1133.23 698.939 1129.23C698.939 1129.23 696.771 1143.6 703.779 1155.74C710.787 1167.88 723.774 1172.24 723.774 1172.24C716.838 1176.25 706.705 1170.23 699.697 1158.1Z" fill="#FFE459"/>
<path d="M526.823 813.056L476.585 842.06L505.59 892.298L555.827 863.293L526.823 813.056Z" fill="#FFE459"/>
<path d="M503.647 859.929C510.656 872.067 510.714 885.154 503.777 889.158C503.777 889.158 498.096 879.319 491.088 867.18C484.08 855.041 478.399 845.2 478.399 845.2C485.335 841.196 496.639 847.79 503.647 859.929Z" fill="#FFE459"/>
<path d="M528.766 845.426C521.758 833.288 521.699 820.201 528.635 816.197C528.635 816.197 534.317 826.037 541.325 838.175C548.333 850.314 554.014 860.155 554.014 860.155C547.078 864.159 535.774 857.565 528.766 845.426Z" fill="#FFE459"/>
<path d="M526.823 813.056L476.585 842.06L505.59 892.298L555.827 863.293L526.823 813.056Z" fill="#FFE459"/>
<path d="M503.647 859.929C510.656 872.067 510.714 885.154 503.777 889.158C503.777 889.158 498.096 879.319 491.088 867.18C484.08 855.041 478.399 845.2 478.399 845.2C485.335 841.196 496.639 847.79 503.647 859.929Z" fill="white"/>
<path d="M528.766 845.426C521.758 833.288 521.699 820.201 528.635 816.197C528.635 816.197 534.317 826.037 541.325 838.175C548.333 850.314 554.014 860.155 554.014 860.155C547.078 864.159 535.774 857.565 528.766 845.426Z" fill="white"/>
<path d="M520.601 850.14C513.593 838.001 512.906 825.276 519.843 821.272C519.843 821.272 517.675 835.645 524.683 847.783C531.691 859.921 544.678 864.288 544.678 864.288C537.742 868.292 527.609 862.278 520.601 850.14Z" fill="#FFE459"/>
<path d="M588.707 724.37L555.434 676.851L507.916 710.124L541.189 757.642L588.707 724.37Z" fill="#FFE459"/>
<path d="M539.992 705.368C528.511 713.408 515.479 714.606 510.885 708.046C510.885 708.046 520.193 701.528 531.675 693.489C543.156 685.449 552.463 678.931 552.463 678.931C557.058 685.493 551.474 697.329 539.992 705.368Z" fill="#FFE459"/>
<path d="M556.628 729.128C568.111 721.088 581.143 719.89 585.736 726.451C585.736 726.451 576.429 732.968 564.947 741.007C553.466 749.047 544.157 755.565 544.157 755.565C539.564 749.003 545.147 737.167 556.628 729.128Z" fill="#FFE459"/>
<path d="M588.707 724.37L555.434 676.851L507.916 710.124L541.189 757.642L588.707 724.37Z" fill="#FFE459"/>
<path d="M539.992 705.368C528.511 713.408 515.479 714.606 510.885 708.046C510.885 708.046 520.193 701.528 531.675 693.489C543.156 685.449 552.463 678.931 552.463 678.931C557.058 685.493 551.474 697.329 539.992 705.368Z" fill="white"/>
<path d="M556.628 729.128C568.111 721.088 581.143 719.89 585.736 726.451C585.736 726.451 576.429 732.968 564.947 741.007C553.466 749.047 544.157 755.565 544.157 755.565C539.564 749.003 545.147 737.167 556.628 729.128Z" fill="white"/>
<path d="M551.222 721.406C562.703 713.366 575.32 711.573 579.913 718.134C579.913 718.134 565.407 717.226 553.925 725.266C542.444 733.306 539.225 746.624 539.225 746.624C534.632 740.063 539.74 729.445 551.222 721.406Z" fill="#FFE459"/>
<path d="M770.257 1269.88H712.248V1295.98H770.257V1269.88Z" fill="#FFE459"/>
<path d="M741.252 1295.98C773.29 1295.98 799.262 1270.01 799.262 1237.97C799.262 1205.93 773.29 1179.96 741.252 1179.96C709.215 1179.96 683.243 1205.93 683.243 1237.97C683.243 1270.01 709.215 1295.98 741.252 1295.98Z" fill="#FFE459"/>
<path d="M472.959 829.009C504.997 829.009 530.968 803.037 530.968 771C530.968 738.962 504.997 712.99 472.959 712.99C440.922 712.99 414.95 738.962 414.95 771C414.95 803.037 440.922 829.009 472.959 829.009Z" fill="#FFE459"/>
<path d="M734.893 1171.2L684.656 1200.21L698.763 1224.64L749 1195.64L734.893 1171.2Z" fill="#FFE459"/>
<path d="M511.754 786.952L461.517 815.956L476.683 842.225L526.921 813.221L511.754 786.952Z" fill="#FFE459"/>
<path d="M541.232 757.609L507.959 710.09L483.112 727.489L516.384 775.007L541.232 757.609Z" fill="#FFE459"/>
<path fill-rule="evenodd" clip-rule="evenodd" d="M1023.04 397.166C1022.89 397.276 1022.73 397.383 1022.57 397.488L990.416 420.001L962.215 454.901L962.214 454.899L927.362 479.303L900.781 441.342L935.636 416.937L935.637 416.938L977.635 402.526L1010.11 379.783C1010.28 379.66 1010.45 379.538 1010.62 379.42C1016.96 374.977 1024.89 375.347 1028.32 380.248C1031.75 385.149 1029.39 392.723 1023.04 397.166Z" fill="#FFE459"/>
<path d="M990.868 370.073C990.302 369.507 989.384 369.507 988.817 370.073C988.251 370.64 988.251 371.558 988.817 372.124L997.021 380.328C997.587 380.894 998.506 380.894 999.072 380.328C999.638 379.761 999.638 378.843 999.072 378.277L990.868 370.073Z" fill="#FFE459"/>
<path d="M996.771 364.17C996.205 363.604 995.286 363.604 994.72 364.17C994.154 364.737 994.154 365.655 994.72 366.221L1002.92 374.425C1003.49 374.991 1004.41 374.991 1004.97 374.425C1005.54 373.859 1005.54 372.94 1004.97 372.374L996.771 364.17Z" fill="#FFE459"/>
<path d="M999.848 359.041L999.848 359.041C999.281 359.608 999.281 360.526 999.848 361.092L1008.05 369.296C1008.62 369.862 1009.54 369.862 1010.1 369.296L1010.1 369.296C1010.67 368.73 1010.67 367.812 1010.1 367.245L1001.9 359.041C1001.33 358.475 1000.41 358.475 999.848 359.041Z" fill="#FFE459"/>
<path d="M1007.03 353.915C1006.46 353.348 1005.54 353.348 1004.98 353.915C1004.41 354.481 1004.41 355.399 1004.98 355.966L1013.18 364.169C1013.75 364.736 1014.66 364.736 1015.23 364.169C1015.8 363.603 1015.8 362.685 1015.23 362.119L1007.03 353.915Z" fill="#FFE459"/>
<path d="M1012.15 348.787C1011.59 348.221 1010.67 348.221 1010.1 348.787C1009.54 349.353 1009.54 350.272 1010.1 350.838L1018.31 359.042C1018.87 359.608 1019.79 359.608 1020.36 359.042C1020.92 358.475 1020.92 357.557 1020.36 356.991L1012.15 348.787Z" fill="#FFE459"/>
<path d="M472.959 791.907C484.38 791.907 493.638 782.649 493.638 771.229C493.638 759.808 484.38 750.55 472.959 750.55C461.539 750.55 452.281 759.808 452.281 771.229C452.281 782.649 461.539 791.907 472.959 791.907Z" fill="#FFE459" stroke="#808080" stroke-width="2" stroke-dasharray="1 3"/>
<path d="M472.959 814.198C496.691 814.198 515.929 794.96 515.929 771.229C515.929 747.497 496.691 728.259 472.959 728.259C449.228 728.259 429.99 747.497 429.99 771.229C429.99 794.96 449.228 814.198 472.959 814.198Z" fill="#FFE459" stroke="#FFE459"/>
<path d="M741.253 1258.89C752.674 1258.89 761.932 1249.63 761.932 1238.21C761.932 1226.79 752.674 1217.53 741.253 1217.53C729.833 1217.53 720.575 1226.79 720.575 1238.21C720.575 1249.63 729.833 1258.89 741.253 1258.89Z" fill="#FFE459" stroke="#808080" stroke-width="2" stroke-dasharray="1 3"/>
<path d="M741.252 1281.18C764.984 1281.18 784.222 1261.94 784.222 1238.21C784.222 1214.48 764.984 1195.24 741.252 1195.24C717.521 1195.24 698.283 1214.48 698.283 1238.21C698.283 1261.94 717.521 1281.18 741.252 1281.18Z" fill="#FFE459" stroke="#FFE459"/>
<path d="M1018.25 394.168C1022.25 394.168 1025.5 390.922 1025.5 386.917C1025.5 382.913 1022.25 379.666 1018.25 379.666C1014.24 379.666 1011 382.913 1011 386.917C1011 390.922 1014.24 394.168 1018.25 394.168Z" fill="#FFE459"/>
<rect x="30" y="30" width="1660" height="1660" stroke="#375981" stroke-width="60"/>
<rect x="30" y="1690" width="1660" height="460" fill="white" stroke="#375981" stroke-width="60"/>
<path d="M352.801 1907.08C343.041 1907.24 334.321 1909.16 326.641 1912.84C318.961 1916.36 313.441 1921.72 310.081 1928.92V2005H277.921V1879.24H307.441V1906.12C309.681 1901.8 312.321 1897.96 315.361 1894.6C318.401 1891.08 321.681 1888.04 325.201 1885.48C328.721 1882.92 332.241 1881 335.761 1879.72C339.441 1878.28 342.961 1877.56 346.321 1877.56C348.081 1877.56 349.361 1877.56 350.161 1877.56C351.121 1877.56 352.001 1877.64 352.801 1877.8V1907.08ZM373.374 2029.48C376.094 2030.28 378.734 2030.84 381.294 2031.16C383.854 2031.64 386.014 2031.88 387.774 2031.88C389.854 2031.88 391.774 2031.48 393.534 2030.68C395.294 2029.88 396.894 2028.44 398.334 2026.36C399.774 2024.44 401.214 2021.72 402.654 2018.2C404.094 2014.68 405.614 2010.28 407.214 2005L357.534 1879.24H390.654L424.734 1977.16L454.974 1879.24H485.214L432.414 2029.96C429.374 2038.76 424.174 2045.96 416.814 2051.56C409.454 2057.16 400.334 2059.96 389.454 2059.96C386.894 2059.96 384.254 2059.72 381.534 2059.24C378.974 2058.92 376.254 2058.28 373.374 2057.32V2029.48ZM533.96 2007.4C527.88 2007.4 522.2 2006.44 516.92 2004.52C511.64 2002.44 507.08 1999.64 503.24 1996.12C499.4 1992.44 496.36 1988.2 494.12 1983.4C492.04 1978.6 491 1973.32 491 1967.56C491 1961.64 492.28 1956.2 494.84 1951.24C497.56 1946.12 501.24 1941.8 505.88 1938.28C510.68 1934.76 516.36 1932.04 522.92 1930.12C529.48 1928.04 536.68 1927 544.52 1927C550.12 1927 555.56 1927.48 560.84 1928.44C566.28 1929.4 571.08 1930.76 575.24 1932.52V1925.32C575.24 1917 572.84 1910.6 568.04 1906.12C563.4 1901.64 556.44 1899.4 547.16 1899.4C540.44 1899.4 533.88 1900.6 527.48 1903C521.08 1905.4 514.52 1908.92 507.8 1913.56L497.96 1893.16C514.12 1882.44 531.56 1877.08 550.28 1877.08C568.36 1877.08 582.36 1881.56 592.28 1890.52C602.36 1899.32 607.4 1912.12 607.4 1928.92V1968.04C607.4 1971.4 607.96 1973.8 609.08 1975.24C610.36 1976.68 612.36 1977.48 615.08 1977.64V2005C609.64 2006.12 604.92 2006.68 600.92 2006.68C594.84 2006.68 590.12 2005.32 586.76 2002.6C583.56 1999.88 581.56 1996.28 580.76 1991.8L580.04 1984.84C574.44 1992.2 567.64 1997.8 559.64 2001.64C551.64 2005.48 543.08 2007.4 533.96 2007.4ZM543.08 1983.88C548.52 1983.88 553.64 1982.92 558.44 1981C563.4 1979.08 567.24 1976.52 569.96 1973.32C573.48 1970.6 575.24 1967.56 575.24 1964.2V1949.8C571.4 1948.36 567.24 1947.24 562.76 1946.44C558.28 1945.48 553.96 1945 549.8 1945C541.48 1945 534.68 1946.92 529.4 1950.76C524.12 1954.44 521.48 1959.16 521.48 1964.92C521.48 1970.36 523.56 1974.92 527.72 1978.6C531.88 1982.12 537 1983.88 543.08 1983.88ZM754.333 2005H722.173V1934.44C722.173 1924.36 720.413 1917 716.893 1912.36C713.373 1907.72 708.493 1905.4 702.253 1905.4C699.053 1905.4 695.773 1906.04 692.413 1907.32C689.053 1908.6 685.853 1910.44 682.812 1912.84C679.933 1915.08 677.293 1917.8 674.893 1921C672.493 1924.2 670.733 1927.72 669.613 1931.56V2005H637.453V1879.24H666.493V1902.52C671.133 1894.52 677.853 1888.28 686.653 1883.8C695.453 1879.32 705.373 1877.08 716.413 1877.08C724.253 1877.08 730.653 1878.52 735.613 1881.4C740.573 1884.28 744.413 1888.04 747.133 1892.68C749.853 1897.32 751.693 1902.6 752.653 1908.52C753.773 1914.44 754.333 1920.44 754.333 1926.52V2005ZM898.033 2007.4C887.793 2007.4 878.593 2005.64 870.433 2002.12C862.273 1998.6 855.313 1993.88 849.553 1987.96C843.953 1981.88 839.633 1974.92 836.593 1967.08C833.553 1959.24 832.033 1951 832.033 1942.36C832.033 1933.56 833.553 1925.24 836.593 1917.4C839.633 1909.56 843.953 1902.68 849.553 1896.76C855.313 1890.68 862.273 1885.88 870.433 1882.36C878.593 1878.84 887.793 1877.08 898.033 1877.08C908.273 1877.08 917.393 1878.84 925.393 1882.36C933.553 1885.88 940.433 1890.68 946.033 1896.76C951.793 1902.68 956.193 1909.56 959.233 1917.4C962.273 1925.24 963.793 1933.56 963.793 1942.36C963.793 1951 962.273 1959.24 959.233 1967.08C956.193 1974.92 951.873 1981.88 946.273 1987.96C940.673 1993.88 933.793 1998.6 925.633 2002.12C917.473 2005.64 908.273 2007.4 898.033 2007.4ZM865.153 1942.36C865.153 1947.96 865.953 1953.08 867.553 1957.72C869.313 1962.2 871.633 1966.12 874.513 1969.48C877.553 1972.84 881.073 1975.48 885.073 1977.4C889.073 1979.16 893.393 1980.04 898.033 1980.04C902.673 1980.04 906.993 1979.16 910.993 1977.4C914.993 1975.48 918.433 1972.84 921.313 1969.48C924.353 1966.12 926.673 1962.12 928.273 1957.48C930.033 1952.84 930.913 1947.72 930.913 1942.12C930.913 1936.68 930.033 1931.64 928.273 1927C926.673 1922.36 924.353 1918.36 921.313 1915C918.433 1911.64 914.993 1909.08 910.993 1907.32C906.993 1905.4 902.673 1904.44 898.033 1904.44C893.393 1904.44 889.073 1905.4 885.073 1907.32C881.073 1909.24 877.553 1911.88 874.513 1915.24C871.633 1918.6 869.313 1922.6 867.553 1927.24C865.953 1931.88 865.153 1936.92 865.153 1942.36ZM985.259 1829.8H1017.42V1964.68C1017.42 1969.32 1018.54 1972.92 1020.78 1975.48C1023.02 1978.04 1026.22 1979.32 1030.38 1979.32C1032.3 1979.32 1034.38 1979 1036.62 1978.36C1039.02 1977.72 1041.26 1976.92 1043.34 1975.96L1047.66 2000.44C1043.34 2002.52 1038.3 2004.12 1032.54 2005.24C1026.78 2006.36 1021.58 2006.92 1016.94 2006.92C1006.86 2006.92 999.019 2004.28 993.419 1999C987.979 1993.56 985.259 1985.88 985.259 1975.96V1829.8ZM1109.19 2007.4C1098.63 2007.4 1088.31 2005.72 1078.23 2002.36C1068.15 1999 1059.51 1994.2 1052.31 1987.96L1064.31 1967.8C1071.99 1973.24 1079.43 1977.4 1086.63 1980.28C1093.99 1983 1101.27 1984.36 1108.47 1984.36C1114.87 1984.36 1119.91 1983.16 1123.59 1980.76C1127.27 1978.36 1129.11 1974.92 1129.11 1970.44C1129.11 1965.96 1126.95 1962.68 1122.63 1960.6C1118.31 1958.52 1111.27 1956.12 1101.51 1953.4C1093.35 1951.16 1086.39 1949 1080.63 1946.92C1074.87 1944.84 1070.23 1942.52 1066.71 1939.96C1063.19 1937.24 1060.63 1934.2 1059.03 1930.84C1057.43 1927.32 1056.63 1923.16 1056.63 1918.36C1056.63 1911.96 1057.83 1906.2 1060.23 1901.08C1062.79 1895.96 1066.31 1891.64 1070.79 1888.12C1075.27 1884.44 1080.47 1881.64 1086.39 1879.72C1092.47 1877.8 1099.03 1876.84 1106.07 1876.84C1115.51 1876.84 1124.31 1878.2 1132.47 1880.92C1140.79 1883.64 1148.39 1888.04 1155.27 1894.12L1142.31 1913.56C1135.91 1908.76 1129.67 1905.24 1123.59 1903C1117.67 1900.76 1111.75 1899.64 1105.83 1899.64C1100.39 1899.64 1095.83 1900.76 1092.15 1903C1088.47 1905.24 1086.63 1908.84 1086.63 1913.8C1086.63 1916.04 1087.03 1917.88 1087.83 1919.32C1088.79 1920.76 1090.23 1922.04 1092.15 1923.16C1094.07 1924.28 1096.55 1925.4 1099.59 1926.52C1102.79 1927.48 1106.71 1928.52 1111.35 1929.64C1119.99 1931.88 1127.35 1934.12 1133.43 1936.36C1139.67 1938.6 1144.71 1941.16 1148.55 1944.04C1152.55 1946.92 1155.43 1950.28 1157.19 1954.12C1159.11 1957.8 1160.07 1962.28 1160.07 1967.56C1160.07 1979.88 1155.51 1989.64 1146.39 1996.84C1137.27 2003.88 1124.87 2007.4 1109.19 2007.4ZM1239.05 2007.4C1228.81 2007.4 1219.61 2005.64 1211.45 2002.12C1203.29 1998.6 1196.33 1993.88 1190.57 1987.96C1184.97 1981.88 1180.65 1974.92 1177.61 1967.08C1174.57 1959.24 1173.05 1951 1173.05 1942.36C1173.05 1933.56 1174.57 1925.24 1177.61 1917.4C1180.65 1909.56 1184.97 1902.68 1190.57 1896.76C1196.33 1890.68 1203.29 1885.88 1211.45 1882.36C1219.61 1878.84 1228.81 1877.08 1239.05 1877.08C1249.29 1877.08 1258.41 1878.84 1266.41 1882.36C1274.57 1885.88 1281.45 1890.68 1287.05 1896.76C1292.81 1902.68 1297.21 1909.56 1300.25 1917.4C1303.29 1925.24 1304.81 1933.56 1304.81 1942.36C1304.81 1951 1303.29 1959.24 1300.25 1967.08C1297.21 1974.92 1292.89 1981.88 1287.29 1987.96C1281.69 1993.88 1274.81 1998.6 1266.65 2002.12C1258.49 2005.64 1249.29 2007.4 1239.05 2007.4ZM1206.17 1942.36C1206.17 1947.96 1206.97 1953.08 1208.57 1957.72C1210.33 1962.2 1212.65 1966.12 1215.53 1969.48C1218.57 1972.84 1222.09 1975.48 1226.09 1977.4C1230.09 1979.16 1234.41 1980.04 1239.05 1980.04C1243.69 1980.04 1248.01 1979.16 1252.01 1977.4C1256.01 1975.48 1259.45 1972.84 1262.33 1969.48C1265.37 1966.12 1267.69 1962.12 1269.29 1957.48C1271.05 1952.84 1271.93 1947.72 1271.93 1942.12C1271.93 1936.68 1271.05 1931.64 1269.29 1927C1267.69 1922.36 1265.37 1918.36 1262.33 1915C1259.45 1911.64 1256.01 1909.08 1252.01 1907.32C1248.01 1905.4 1243.69 1904.44 1239.05 1904.44C1234.41 1904.44 1230.09 1905.4 1226.09 1907.32C1222.09 1909.24 1218.57 1911.88 1215.53 1915.24C1212.65 1918.6 1210.33 1922.6 1208.57 1927.24C1206.97 1931.88 1206.17 1936.92 1206.17 1942.36ZM1443.4 2005H1411.24V1934.44C1411.24 1924.36 1409.48 1917 1405.96 1912.36C1402.44 1907.72 1397.56 1905.4 1391.32 1905.4C1388.12 1905.4 1384.84 1906.04 1381.48 1907.32C1378.12 1908.6 1374.92 1910.44 1371.88 1912.84C1369 1915.08 1366.36 1917.8 1363.96 1921C1361.56 1924.2 1359.8 1927.72 1358.68 1931.56V2005H1326.52V1879.24H1355.56V1902.52C1360.2 1894.52 1366.92 1888.28 1375.72 1883.8C1384.52 1879.32 1394.44 1877.08 1405.48 1877.08C1413.32 1877.08 1419.72 1878.52 1424.68 1881.4C1429.64 1884.28 1433.48 1888.04 1436.2 1892.68C1438.92 1897.32 1440.76 1902.6 1441.72 1908.52C1442.84 1914.44 1443.4 1920.44 1443.4 1926.52V2005Z" fill="#375981"/>
</svg>
